<svg xmlns="http://www.w3.org/2000/svg" xmlns:xlink="http://www.w3.org/1999/xlink" width="537.16" height="485" viewBox="0 0 537.16 485"><defs><style>.cls-9{fill:#fff}.cls-60{fill:#3d4251}.cls-62{fill:#fbcfc7}.cls-73{fill:#c18b84}.cls-74{fill:#445c93}.cls-75{fill:#31437d}.cls-82{fill:#7ecce2}</style><linearGradient id="Dégradé_sans_nom_6" x1="5810.29" y1="120.3" x2="5810.29" y2="211.41" gradientTransform="matrix(-1 0 0 1 5940.16 0)" gradientUnits="userSpaceOnUse"><stop offset="0" stop-color="#d4ebf9"/><stop offset=".11" stop-color="#d5ebf9" stop-opacity=".98"/><stop offset=".24" stop-color="#d7ecf9" stop-opacity=".93"/><stop offset=".37" stop-color="#dbeefa" stop-opacity=".84"/><stop offset=".51" stop-color="#e0f1fb" stop-opacity=".71"/><stop offset=".65" stop-color="#e7f4fc" stop-opacity=".55"/><stop offset=".79" stop-color="#f0f8fd" stop-opacity=".35"/><stop offset=".93" stop-color="#fafdfe" stop-opacity=".12"/><stop offset="1" stop-color="#fff" stop-opacity="0"/></linearGradient><linearGradient id="Dégradé_sans_nom_6-2" x1="359.74" y1="99.08" x2="359.74" y2="171.83" xlink:href="#Dégradé_sans_nom_6"/><linearGradient id="Dégradé_sans_nom_100" x1="238.3" y1="120.86" x2="138.94" y2="292.97" gradientUnits="userSpaceOnUse"><stop offset="0" stop-color="#ecf7ff"/><stop offset="1" stop-color="#d4ebf9"/></linearGradient><linearGradient id="Dégradé_sans_nom_30" x1="204.39" y1="126.33" x2="124.82" y2="264.14" gradientUnits="userSpaceOnUse"><stop offset="0" stop-color="#7ecce2"/><stop offset="1" stop-color="#688cd0"/></linearGradient><linearGradient id="Dégradé_sans_nom_30-2" x1="226.05" y1="138.29" x2="146.48" y2="276.11" xlink:href="#Dégradé_sans_nom_30"/><linearGradient id="Dégradé_sans_nom_79" x1="247.7" y1="150.26" x2="168.13" y2="288.07" xlink:href="#Dégradé_sans_nom_30"/><linearGradient id="Dégradé_sans_nom_10" x1="354.21" y1="81.97" x2="209.94" y2="331.86" gradientUnits="userSpaceOnUse"><stop offset="0" stop-color="#ebf4f7"/><stop offset="1" stop-color="#b2cee4"/></linearGradient><linearGradient id="Dégradé_sans_nom_36" x1="141.89" y1="67.3" x2="328.8" y2="67.3" gradientUnits="userSpaceOnUse"><stop offset="0" stop-color="#fff"/><stop offset="1" stop-color="#ebf4f7"/></linearGradient><linearGradient id="Dégradé_sans_nom_30-3" x1="3734.18" y1="126.33" x2="3654.61" y2="264.14" gradientTransform="matrix(-1 0 0 1 4000.89 0)" xlink:href="#Dégradé_sans_nom_30"/><linearGradient id="Dégradé_sans_nom_30-4" x1="3755.83" y1="138.29" x2="3676.26" y2="276.11" gradientTransform="matrix(-1 0 0 1 4000.89 0)" xlink:href="#Dégradé_sans_nom_30"/><linearGradient id="Dégradé_sans_nom_30-5" x1="3777.49" y1="150.26" x2="3697.92" y2="288.07" gradientTransform="matrix(-1 0 0 1 4000.89 0)" xlink:href="#Dégradé_sans_nom_30"/><linearGradient id="Dégradé_sans_nom_100-2" x1="207.9" y1="76.86" x2="201.82" y2="87.38" xlink:href="#Dégradé_sans_nom_100"/><linearGradient id="Dégradé_sans_nom_10-2" x1="283.52" y1="51.48" x2="248.15" y2="112.75" xlink:href="#Dégradé_sans_nom_10"/><linearGradient id="Dégradé_sans_nom_30-6" x1="226.87" y1="76.94" x2="243.82" y2="40.57" xlink:href="#Dégradé_sans_nom_30"/><linearGradient id="Dégradé_sans_nom_103" x1="-6409.41" y1="312.8" x2="-6433.88" y2="270.43" gradientTransform="matrix(-1 0 0 1 -5958.84 0)" gradientUnits="userSpaceOnUse"><stop offset="0" stop-color="#b2cee4"/><stop offset="1" stop-color="#ebf4f7" stop-opacity="0"/></linearGradient><linearGradient id="Dégradé_sans_nom_100-3" x1="4721.98" y1="198.85" x2="4632.13" y2="354.48" gradientTransform="matrix(-1 0 0 1 5019.16 0)" xlink:href="#Dégradé_sans_nom_100"/><linearGradient id="Dégradé_sans_nom_10-3" x1="4588.35" y1="266.96" x2="4560.17" y2="315.77" gradientTransform="matrix(-1 0 0 1 5019.16 0)" xlink:href="#Dégradé_sans_nom_10"/><linearGradient id="Dégradé_sans_nom_36-2" x1="4548.19" y1="244.96" x2="4651.56" y2="244.96" gradientTransform="matrix(-1 0 0 1 5019.16 0)" xlink:href="#Dégradé_sans_nom_36"/><linearGradient id="Dégradé_sans_nom_10-4" x1="4691.15" y1="324.39" x2="4662.97" y2="373.2" gradientTransform="matrix(-1 0 0 1 5019.16 0)" xlink:href="#Dégradé_sans_nom_10"/><linearGradient id="Dégradé_sans_nom_100-4" x1="470.74" y1="324.39" x2="442.56" y2="373.2" gradientTransform="translate(-166)" xlink:href="#Dégradé_sans_nom_100"/><linearGradient id="Dégradé_sans_nom_36-3" x1="4651.1" y1="302.39" x2="4754.47" y2="302.39" gradientTransform="matrix(-1 0 0 1 5019.16 0)" xlink:href="#Dégradé_sans_nom_36"/><linearGradient id="Dégradé_sans_nom_10-5" x1="4658.29" y1="220.27" x2="4592.91" y2="333.52" gradientTransform="matrix(-1 0 0 1 5019.16 0)" xlink:href="#Dégradé_sans_nom_10"/><linearGradient id="Dégradé_sans_nom_100-5" x1="4638.2" y1="223.83" x2="4611.55" y2="177.68" gradientTransform="matrix(-1 0 0 1 5019.16 0)" xlink:href="#Dégradé_sans_nom_100"/><linearGradient id="Dégradé_sans_nom_36-4" x1="4646.4" y1="213.95" x2="4677.48" y2="147.29" gradientTransform="matrix(-1 0 0 1 5019.16 0)" xlink:href="#Dégradé_sans_nom_36"/><linearGradient id="Dégradé_sans_nom_30-7" x1="4619.96" y1="179.99" x2="4619.96" y2="194.08" gradientTransform="matrix(-1 0 0 1 5019.16 0)" xlink:href="#Dégradé_sans_nom_30"/><linearGradient id="Dégradé_sans_nom_30-8" x1="4584.6" y1="272.2" x2="4584.6" y2="297.21" gradientTransform="matrix(-1 0 0 1 5019.16 0)" xlink:href="#Dégradé_sans_nom_30"/><linearGradient id="Dégradé_sans_nom_30-9" x1="4564.04" y1="286.9" x2="4564.04" y2="311.91" gradientTransform="matrix(-1 0 0 1 5019.16 0)" xlink:href="#Dégradé_sans_nom_30"/><linearGradient id="Dégradé_sans_nom_30-10" x1="4692.81" y1="324.56" x2="4692.71" y2="349.52" gradientTransform="matrix(-1 0 0 1 5046.38 9.99)" xlink:href="#Dégradé_sans_nom_30"/><linearGradient id="Dégradé_sans_nom_30-11" x1="352.21" y1="342.95" x2="352.21" y2="367.96" xlink:href="#Dégradé_sans_nom_30"/><linearGradient id="Dégradé_sans_nom_30-12" x1="4635.25" y1="217.53" x2="4635.25" y2="242.54" gradientTransform="matrix(-1 0 0 1 5019.16 0)" xlink:href="#Dégradé_sans_nom_30"/><linearGradient id="Dégradé_sans_nom_30-13" x1="4614.58" y1="259.34" x2="4614.58" y2="284.34" gradientTransform="matrix(-1 0 0 1 5019.16 0)" xlink:href="#Dégradé_sans_nom_30"/><linearGradient id="Dégradé_sans_nom_30-14" x1="383.91" y1="271.28" x2="383.91" y2="296.29" xlink:href="#Dégradé_sans_nom_30"/><linearGradient id="Dégradé_sans_nom_10-6" x1="396.61" y1="159.05" x2="397.75" y2="159.05" xlink:href="#Dégradé_sans_nom_10"/><linearGradient id="Dégradé_sans_nom_50" x1="396.71" y1="140.4" x2="410.02" y2="140.4" gradientUnits="userSpaceOnUse"><stop offset="0" stop-color="#ffc844"/><stop offset="1" stop-color="#f4af14"/></linearGradient><linearGradient id="Dégradé_sans_nom_71" x1="206.95" y1="67.8" x2="232.51" y2="13" gradientUnits="userSpaceOnUse"><stop offset="0" stop-color="#7ecce2"/><stop offset="1" stop-color="#ebf4f7" stop-opacity="0"/></linearGradient><linearGradient id="Dégradé_sans_nom_75" x1="3851.42" y1="67.8" x2="3876.98" y2="13" gradientTransform="matrix(-1 0 0 1 4115.16 0)" gradientUnits="userSpaceOnUse"><stop offset="0" stop-color="#688cd0"/><stop offset="1" stop-color="#ebf4f7" stop-opacity="0"/></linearGradient><linearGradient id="Dégradé_sans_nom_103-2" x1="-6191.16" y1="423.92" x2="-6215.62" y2="381.55" xlink:href="#Dégradé_sans_nom_103"/><linearGradient id="Dégradé_sans_nom_10-7" y1="441.59" x2="242.28" y2="441.59" xlink:href="#Dégradé_sans_nom_10"/><linearGradient id="Dégradé_sans_nom_67" x1="273.14" y1="321.48" x2="413.88" y2="321.48" gradientTransform="translate(-166)" gradientUnits="userSpaceOnUse"><stop offset="0" stop-color="#b2cee4"/><stop offset=".5" stop-color="#ebf4f7"/><stop offset="1" stop-color="#b2cee4"/></linearGradient><linearGradient id="Dégradé_sans_nom_36-5" y1="409.72" x2="242.28" y2="409.72" xlink:href="#Dégradé_sans_nom_36"/><linearGradient id="Dégradé_sans_nom_100-6" x1="365.67" y1="280.34" x2="315.75" y2="366.81" gradientTransform="translate(-166)" xlink:href="#Dégradé_sans_nom_100"/><linearGradient id="Dégradé_sans_nom_77" x1="149.22" y1="358.78" x2="233.85" y2="309.92" gradientUnits="userSpaceOnUse"><stop offset="0" stop-color="#9baecf"/><stop offset="1" stop-color="#31437d"/></linearGradient><linearGradient id="Dégradé_sans_nom_10-8" x1="101.97" y1="318.29" x2="160.78" y2="284.34" xlink:href="#Dégradé_sans_nom_10"/><linearGradient id="Dégradé_sans_nom_30-15" x1="113.53" y1="332.14" x2="235.32" y2="332.14" xlink:href="#Dégradé_sans_nom_30"/><linearGradient id="Dégradé_sans_nom_30-16" x1="117.25" y1="266.69" x2="146.17" y2="266.69" xlink:href="#Dégradé_sans_nom_30"/><linearGradient id="Dégradé_sans_nom_30-17" x1="117.23" y1="270.08" x2="136.83" y2="270.08" xlink:href="#Dégradé_sans_nom_30"/><linearGradient id="Dégradé_sans_nom_30-18" x1="117.22" y1="274.46" x2="131.76" y2="274.46" xlink:href="#Dégradé_sans_nom_30"/><linearGradient id="Dégradé_sans_nom_30-19" x1="117.13" y1="314.49" x2="136.74" y2="314.49" xlink:href="#Dégradé_sans_nom_30"/><linearGradient id="Dégradé_sans_nom_30-20" x1="117.12" y1="318.87" x2="131.67" y2="318.87" xlink:href="#Dégradé_sans_nom_30"/><linearGradient id="Dégradé_sans_nom_30-21" x1="117.1" y1="326.01" x2="136.72" y2="326.01" xlink:href="#Dégradé_sans_nom_30"/><linearGradient id="Dégradé_sans_nom_30-22" x1="153.56" y1="292.39" x2="203.08" y2="292.39" xlink:href="#Dégradé_sans_nom_30"/><linearGradient id="Dégradé_sans_nom_30-23" x1="153.55" y1="291.47" x2="178.45" y2="291.47" xlink:href="#Dégradé_sans_nom_30"/><linearGradient id="Dégradé_sans_nom_30-24" x1="153.48" y1="338.21" x2="187.05" y2="338.21" xlink:href="#Dégradé_sans_nom_30"/><linearGradient id="Dégradé_sans_nom_30-25" x1="153.45" y1="357.5" x2="187.03" y2="357.5" xlink:href="#Dégradé_sans_nom_30"/><linearGradient id="Dégradé_sans_nom_30-26" x1="153.44" y1="360.87" x2="178.37" y2="360.87" xlink:href="#Dégradé_sans_nom_30"/><linearGradient id="Dégradé_sans_nom_30-27" x1="153.46" y1="349.36" x2="178.38" y2="349.36" xlink:href="#Dégradé_sans_nom_30"/><linearGradient id="Dégradé_sans_nom_30-28" x1="153.54" y1="295.17" x2="171" y2="295.17" xlink:href="#Dégradé_sans_nom_30"/><linearGradient id="Dégradé_sans_nom_30-29" x1="113.65" y1="280.94" x2="235.31" y2="280.94" xlink:href="#Dégradé_sans_nom_30"/><linearGradient id="Dégradé_sans_nom_57" x1="301.74" y1="415.76" x2="282.73" y2="382.83" gradientUnits="userSpaceOnUse"><stop offset="0" stop-color="#88edb1"/><stop offset="1" stop-color="#36d57d"/></linearGradient><linearGradient id="Dégradé_sans_nom_57-2" x1="289.98" y1="398.26" x2="302.23" y2="371.99" xlink:href="#Dégradé_sans_nom_57"/><linearGradient id="Dégradé_sans_nom_10-9" x1="329.06" y1="430.89" x2="333.41" y2="430.89" xlink:href="#Dégradé_sans_nom_10"/><linearGradient id="Dégradé_sans_nom_10-10" x1="321.62" y1="407.92" x2="334.08" y2="429.51" xlink:href="#Dégradé_sans_nom_10"/><linearGradient id="Dégradé_sans_nom_100-7" x1="331.23" y1="416.77" x2="344.52" y2="416.77" xlink:href="#Dégradé_sans_nom_100"/><linearGradient id="Dégradé_sans_nom_10-11" x1="324.16" y1="399.4" x2="333.33" y2="415.28" xlink:href="#Dégradé_sans_nom_10"/><linearGradient id="Dégradé_sans_nom_100-8" x1="331.23" y1="405.9" x2="341.01" y2="405.9" xlink:href="#Dégradé_sans_nom_100"/><linearGradient id="Dégradé_sans_nom_103-3" x1="-6036.2" y1="417.5" x2="-6049.25" y2="394.9" xlink:href="#Dégradé_sans_nom_103"/><linearGradient id="Dégradé_sans_nom_57-3" x1="69.84" y1="353.59" x2="69.84" y2="371.34" xlink:href="#Dégradé_sans_nom_57"/><linearGradient id="Dégradé_sans_nom_103-4" x1="-6063.42" y1="427.75" x2="-6076.39" y2="405.29" xlink:href="#Dégradé_sans_nom_103"/><linearGradient id="Dégradé_sans_nom_4" x1="86.66" y1="352.86" x2="86.66" y2="352.86" gradientUnits="userSpaceOnUse"><stop offset="0" stop-color="#f06a8c"/><stop offset="1" stop-color="#f6a38d"/></linearGradient><linearGradient id="Dégradé_sans_nom_4-2" x1="84.86" y1="367.41" x2="102.5" y2="367.41" xlink:href="#Dégradé_sans_nom_4"/><linearGradient id="Dégradé_sans_nom_103-5" x1="-6079.63" y1="448.43" x2="-6093.78" y2="423.93" xlink:href="#Dégradé_sans_nom_103"/><linearGradient id="Dégradé_sans_nom_107" x1="108.01" y1="371.42" x2="108.01" y2="399.86" gradientUnits="userSpaceOnUse"><stop offset="0" stop-color="#9be8f0"/><stop offset="1" stop-color="#3ac"/></linearGradient><linearGradient id="Dégradé_sans_nom_30-30" x1="118.45" y1="414.71" x2="134.83" y2="414.71" xlink:href="#Dégradé_sans_nom_30"/><linearGradient id="Dégradé_sans_nom_100-9" x1="116.77" y1="410.79" x2="116.77" y2="426.07" xlink:href="#Dégradé_sans_nom_100"/><linearGradient id="Dégradé_sans_nom_77-2" x1="121.66" y1="406.56" x2="127.41" y2="406.56" xlink:href="#Dégradé_sans_nom_77"/><linearGradient id="Dégradé_sans_nom_107-2" x1="116.75" y1="377.97" x2="116.75" y2="397.22" xlink:href="#Dégradé_sans_nom_107"/></defs><g id="Calque_2" data-name="Calque 2" transform="translate(35, 0)"><g id="Calque_1-2" data-name="Calque 1"><path d="M79.76 152.19a29.58 29.58 0 0 1 8.58 1.27 45.54 45.54 0 0 1 87.37-.93 29.59 29.59 0 1 1-16.71 50.1 45.39 45.39 0 0 1-56.28-2.08 29.61 29.61 0 1 1-22.91-48.36z" fill="url(#Dégradé_sans_nom_6)"/><path d="M399.75 124.54a23.62 23.62 0 0 0-6.85 1 36.36 36.36 0 0 0-69.76-.74 23.63 23.63 0 1 0 13.38 40 36.24 36.24 0 0 0 44.94-1.66 23.64 23.64 0 1 0 18.29-38.62z" fill="url(#Dégradé_sans_nom_6-2)"/><path fill="url(#Dégradé_sans_nom_100)" d="M235.35 346.53l-93.46-51.86V67.3l93.46 51.86v227.37z"/><path fill="url(#Dégradé_sans_nom_30)" d="M169.81 290.11l-10.41-6V100.35l10.41 6.01v183.75z"/><path fill="url(#Dégradé_sans_nom_30-2)" d="M191.47 302.08l-10.41-6.01V112.32l10.41 6.01v183.75z"/><path fill="url(#Dégradé_sans_nom_79)" d="M213.12 314.05l-10.41-6.01V124.29l10.41 6v183.76z"/><path fill="url(#Dégradé_sans_nom_10)" d="M235.35 346.53l93.45-51.86V67.3l-93.45 51.86v227.37z"/><path fill="url(#Dégradé_sans_nom_36)" d="M328.8 67.3l-93.45 51.86-93.46-51.86 93.46-51.85L328.8 67.3z"/><path class="cls-9" d="M296.32 58.76l-60.97 33.83-60.98-33.83 60.98-33.84 60.97 33.84z"/><path fill="url(#Dégradé_sans_nom_30-3)" d="M301.3 290.11l10.41-6V100.35l-10.41 6.01v183.75z"/><path fill="url(#Dégradé_sans_nom_30-4)" d="M279.64 302.08l10.41-6.01V112.32l-10.41 6.01v183.75z"/><path fill="url(#Dégradé_sans_nom_30-5)" d="M257.99 314.05l10.41-6.01V124.29l-10.41 6v183.76z"/><path fill="url(#Dégradé_sans_nom_100-2)" d="M235.35 105.36l-60.98-33.83V58.87l60.98 33.84v12.65z"/><path fill="url(#Dégradé_sans_nom_10-2)" d="M235.35 105.36l60.97-33.83V58.87l-60.97 33.84v12.65z"/><path fill="url(#Dégradé_sans_nom_30-6)" d="M275.24 58.76l-39.89 22.13-39.89-22.13 39.89-22.14 39.89 22.14z"/><path fill="url(#Dégradé_sans_nom_103)" d="M433.97 303.22l17.36-.9 5.69 14.01 50.14-27.36-67.24-31.91"/><path fill="url(#Dégradé_sans_nom_100-3)" d="M367.83 365.56l-51.45-28.48V187.77l51.45 28.48v149.31z"/><path fill="url(#Dégradé_sans_nom_10-3)" d="M419.17 337.54l51.46-28.49v-63.86l-51.46 28.49v63.86z"/><path class="cls-9" d="M449.26 285.26l11.95-6.76v-18.24l-11.95 6.76v18.24zM428.48 323.85l11.94-6.76v-18.24l-11.94 6.76v18.24z"/><path fill="url(#Dégradé_sans_nom_36-2)" d="M367.6 244.96l51.69 28.68 51.68-28.68-51.68-28.68-51.69 28.68z"/><path fill="url(#Dégradé_sans_nom_10-4)" d="M316.38 394.96l51.45-28.48v-63.86l-51.45 28.49v63.85z"/><path fill="url(#Dégradé_sans_nom_100-4)" d="M316.38 394.96l-51.46-28.48v-63.86l51.46 28.49v63.85z"/><path fill="url(#Dégradé_sans_nom_36-3)" d="M264.69 302.39l51.69 28.68 51.68-28.68-51.68-28.68-51.69 28.68z"/><path fill="url(#Dégradé_sans_nom_10-5)" d="M367.83 366.02l51.46-28.48V187.77l-51.46 28.48v149.77z"/><path fill="url(#Dégradé_sans_nom_100-5)" d="M367.83 216.25l29.41-44.56 22.05 16.08-51.46 28.48z"/><path fill="url(#Dégradé_sans_nom_36-4)" d="M367.83 216.25l29.41-44.56-47.78-28.03-33.08 44.11 51.45 28.48z"/><path class="cls-9" d="M325.61 353.19l11.97-6.71.07-18.25-11.97 6.72-.07 18.24zM325.57 379.9l11.94-6.76V354.9l-11.94 6.76v18.24zM398.61 230.59l11.95-6.76v-18.24l-11.95 6.75v18.25zM381.24 359.23l27.48-15.55v-53l-27.48 15.55v53z"/><path d="M392.88 185.7c-1.62 3.93 0 7.64 3.71 8.28a8.6 8.6 0 0 0 9.11-5.53c1.33-3.7-.37-7.41-3.78-8.28s-7.42 1.6-9.04 5.53z" fill="url(#Dégradé_sans_nom_30-7)"/><path class="cls-9" d="M398.73 257.7l11.94-6.76v-18.25l-11.94 6.76v18.25zM378.06 269.64l11.94-6.76v-18.24l-11.94 6.76v18.24z"/><path fill="url(#Dégradé_sans_nom_30-8)" d="M428.59 297.21l11.95-6.76V272.2l-11.95 6.76v18.25z"/><path fill="url(#Dégradé_sans_nom_30-9)" d="M449.15 311.91l11.95-6.76V286.9l-11.95 6.76v18.25z"/><path fill="url(#Dégradé_sans_nom_30-10)" d="M346.33 341.33l11.97-6.72.07-18.24-11.97 6.71-.07 18.25z"/><path fill="url(#Dégradé_sans_nom_30-11)" d="M346.24 367.96l11.95-6.76v-18.25l-11.95 6.76v18.25z"/><path fill="url(#Dégradé_sans_nom_30-12)" d="M377.94 242.54l11.94-6.76v-18.25l-11.94 6.76v18.25z"/><path fill="url(#Dégradé_sans_nom_30-13)" d="M398.61 284.34l11.95-6.76v-18.24l-11.95 6.76v18.24z"/><path fill="url(#Dégradé_sans_nom_30-14)" d="M377.94 296.29l11.94-6.76v-18.25l-11.94 6.76v18.25z"/><path fill="url(#Dégradé_sans_nom_10-6)" d="M396.61 145.37h1.14v27.35h-1.14z"/><path d="M410.29 132c0-.23-.19-.3-.41-.23a16.26 16.26 0 0 0-6.08 4.37 13.41 13.41 0 0 1-3.18 2.84 9.68 9.68 0 0 1-3.66 1 .7.7 0 0 0-.52.63v8.07a.25.25 0 0 0 .3.26 10.29 10.29 0 0 0 6.47-3.34c2.09-2.25 4.09-4.37 6.67-5.35a.62.62 0 0 0 .36-.37.52.52 0 0 0 .05-.22z" fill="url(#Dégradé_sans_nom_50)"/><path fill="url(#Dégradé_sans_nom_71)" opacity=".8" d="M204 63.58V0l31.35 14.33v66.71L204 63.58z"/><path fill="url(#Dégradé_sans_nom_75)" opacity=".8" d="M266.69 63.58V0l-31.34 14.33v66.71l31.34-17.46z"/><path fill="url(#Dégradé_sans_nom_103-2)" d="M215.72 414.34l17.36-.9 5.68 14.01 50.15-27.36-67.24-31.91"/><path fill="url(#Dégradé_sans_nom_10-7)" d="M0 409.38L135.15 485l107.13-59.52v-9.34L39.21 398.17 0 401.67v7.71z"/><path fill="url(#Dégradé_sans_nom_67)" d="M112.74 225.18l135.14 75.57v112.83l-5.6 4.2-93.03-92.03-42.11-96.34 5.6-4.23z"/><path fill="url(#Dégradé_sans_nom_36-5)" d="M242.28 417.78L135.15 477.3 0 401.67l107.14-59.52 135.14 75.63z"/><path fill="url(#Dégradé_sans_nom_100-6)" d="M242.28 417.78l-135.14-75.57V229.38l135.14 75.57v112.83z"/><path fill="url(#Dégradé_sans_nom_77)" d="M235.32 405.11l-87.16-48.17.22-93.7 86.94 49.22v92.65z"/><path fill="url(#Dégradé_sans_nom_10-8)" d="M149.19 357.56l-35.75-19.41.22-93.13 35.69 19.52-.16 93.02z"/><path fill="url(#Dégradé_sans_nom_30-15)" d="M149.26 315.14l-35.72-19.46-.01 5.76 35.72 19.45 86.07 47.7v-5.73l-86.06-47.72z"/><path d="M144.83 275.44l-26.25-14.34a2.87 2.87 0 0 1-1.33-2.31c0-.87.6-1.25 1.34-.85l26.25 14.35a2.89 2.89 0 0 1 1.33 2.31c0 .87-.6 1.25-1.34.84z" fill="url(#Dégradé_sans_nom_30-16)"/><path d="M135.49 276.27L118.57 267a2.87 2.87 0 0 1-1.33-2.31c0-.87.61-1.25 1.34-.85l16.92 9.23a2.89 2.89 0 0 1 1.33 2.31c-.01.91-.61 1.29-1.34.89z" fill="url(#Dégradé_sans_nom_30-17)"/><path d="M130.42 279.27l-11.87-6.47a2.87 2.87 0 0 1-1.33-2.31c0-.87.61-1.25 1.34-.85l11.87 6.47a2.88 2.88 0 0 1 1.33 2.31c0 .87-.6 1.25-1.34.85z" fill="url(#Dégradé_sans_nom_30-18)"/><path d="M135.4 320.67l-16.93-9.2a2.87 2.87 0 0 1-1.33-2.3c0-.87.61-1.25 1.34-.85l16.93 9.21a2.88 2.88 0 0 1 1.33 2.31c0 .85-.6 1.23-1.34.83z" fill="url(#Dégradé_sans_nom_30-19)"/><path d="M130.33 323.68l-11.88-6.45a2.87 2.87 0 0 1-1.33-2.3c0-.87.61-1.25 1.34-.86l11.88 6.45a2.88 2.88 0 0 1 1.33 2.31c0 .86-.6 1.25-1.34.85z" fill="url(#Dégradé_sans_nom_30-20)"/><path d="M135.38 332.19L118.44 323a2.87 2.87 0 0 1-1.33-2.3c0-.87.61-1.25 1.34-.86l16.94 9.2a2.88 2.88 0 0 1 1.33 2.31c0 .85-.61 1.24-1.34.84z" fill="url(#Dégradé_sans_nom_30-21)"/><path d="M201.74 306.95L154.9 281a2.9 2.9 0 0 1-1.33-2.31c0-.87.6-1.25 1.34-.84l46.85 26a2.93 2.93 0 0 1 1.34 2.32c-.02.83-.62 1.19-1.36.78z" fill="url(#Dégradé_sans_nom_30-22)"/><path d="M177.11 299.18l-22.22-12.27a2.9 2.9 0 0 1-1.33-2.31c0-.87.6-1.25 1.34-.84L177.11 296a2.91 2.91 0 0 1 1.33 2.32c.01.89-.6 1.27-1.33.86z" fill="url(#Dégradé_sans_nom_30-23)"/><path d="M185.71 348.29l-30.9-17a2.89 2.89 0 0 1-1.34-2.31c0-.87.6-1.25 1.34-.84l30.89 17a2.91 2.91 0 0 1 1.34 2.32c.01.86-.59 1.23-1.33.83z" fill="url(#Dégradé_sans_nom_30-24)"/><path d="M185.69 367.57l-30.91-17a2.89 2.89 0 0 1-1.34-2.31c0-.87.6-1.25 1.34-.85l30.91 17a2.9 2.9 0 0 1 1.34 2.31c-.03.88-.6 1.28-1.34.85z" fill="url(#Dégradé_sans_nom_30-25)"/><path d="M177 368.54l-22.25-12.2a2.89 2.89 0 0 1-1.34-2.31c0-.87.6-1.25 1.34-.85L177 365.39a2.9 2.9 0 0 1 1.34 2.31c.03.87-.57 1.25-1.34.84z" fill="url(#Dégradé_sans_nom_30-26)"/><path d="M177 357l-22.2-12.17a2.89 2.89 0 0 1-1.34-2.31c0-.87.6-1.25 1.34-.85l22.2 12.22a2.9 2.9 0 0 1 1.34 2.31c.04.87-.56 1.25-1.34.8z" fill="url(#Dégradé_sans_nom_30-27)"/><path d="M169.66 300.82l-14.78-8.15a2.9 2.9 0 0 1-1.33-2.31c0-.87.6-1.25 1.34-.84l14.78 8.15A2.91 2.91 0 0 1 171 300c0 .85-.61 1.22-1.34.82z" fill="url(#Dégradé_sans_nom_30-28)"/><path d="M230.51 357.43l-7.51-4.18a4.47 4.47 0 0 1-2-3.54v-.39c0-1.32.92-1.89 2-1.26l7.47 4.19a4.48 4.48 0 0 1 2 3.54v.39c.08 1.32-.84 1.88-1.96 1.25z" fill="#ffc844"/><path class="cls-60" d="M224.89 351.2v-.06l-.07-.07-.09-.07h-.14a.17.17 0 0 0 0 .07.21.21 0 0 0 0 .1l.06.09.09.09.1.1.1.11.09.12a.65.65 0 0 1 .06.14.54.54 0 0 1 0 .16.43.43 0 0 1 0 .17.2.2 0 0 1-.08.1.21.21 0 0 1-.13 0 .47.47 0 0 1-.18-.06l-.11-.08-.11-.1-.1-.11-.08-.12.07-.09h.05l.06.08.08.09.11.08a.17.17 0 0 0 .15 0s.05-.06.05-.12a.24.24 0 0 0 0-.11l-.06-.1-.09-.09-.1-.09-.1-.1-.09-.12a.66.66 0 0 1-.06-.15.62.62 0 0 1 0-.18.34.34 0 0 1 0-.14.19.19 0 0 1 .08-.09.21.21 0 0 1 .12 0 .44.44 0 0 1 .17.06.92.92 0 0 1 .2.15 1 1 0 0 1 .15.2zM225.86 351.89v1l-.13-.07a.1.1 0 0 1-.05-.07v-.09a.24.24 0 0 1-.12 0 .29.29 0 0 1-.15 0 .51.51 0 0 1-.12-.1.58.58 0 0 1-.09-.13.66.66 0 0 1-.06-.15.73.73 0 0 1 0-.17v-.64l.21.12v.64a.36.36 0 0 0 0 .16.27.27 0 0 0 .11.11.19.19 0 0 0 .1 0h.09v-.73zM226.27 352.25a.21.21 0 0 1 .12 0 .28.28 0 0 1 .14 0 .51.51 0 0 1 .13.11.68.68 0 0 1 .1.16.88.88 0 0 1 .07.19 1 1 0 0 1 0 .22.74.74 0 0 1 0 .21.28.28 0 0 1-.07.13.17.17 0 0 1-.12 0 .3.3 0 0 1-.15 0l-.07-.05-.06-.06-.05-.07v-.08.06l-.14-.08v-1.47l.21.12zm0 .63a.48.48 0 0 0 .08.11l.09.07h.09a.08.08 0 0 0 .07 0 .19.19 0 0 0 0-.09.65.65 0 0 0 0-.15.64.64 0 0 0 0-.27.32.32 0 0 0-.14-.15.16.16 0 0 0-.1 0 .17.17 0 0 0-.08 0zM227 353.56v-1l.13.07a.11.11 0 0 1 .05.07v.08h.18a.38.38 0 0 1 .13.13.62.62 0 0 1 .08.18.14.14 0 0 1 .05-.06H227.85l.13.1a.55.55 0 0 1 .09.13.63.63 0 0 1 .06.15.74.74 0 0 1 0 .17v.65l-.21-.12v-.65a.35.35 0 0 0 0-.17.26.26 0 0 0-.11-.11h-.06a.22.22 0 0 0 0 .08v.74l-.21-.12v-.65a.36.36 0 0 0 0-.17.25.25 0 0 0-.1-.1H227.29v.74zM228.67 353.17a.12.12 0 0 1 0 .05h-.1v-.12a.21.21 0 0 1 0-.07.12.12 0 0 1 0-.05h.1v.13a.23.23 0 0 1 0 .06zm0 .28v1l-.21-.12v-1zM229.14 354.76a.44.44 0 0 1-.17-.17.48.48 0 0 1-.06-.24v-.57h-.09v-.1l.14.05v-.25l.11.06v.32l.23.13v.01l-.23-.13v.55a.18.18 0 0 0 0 .09.14.14 0 0 0 .05.06h.1l.06.15a.18.18 0 0 1-.1 0z"/><path class="cls-9" d="M154.69 321.79l-.17-.09a.15.15 0 0 1-.07-.08l-.21-.5h-.08v.47l-.19-.1v-1.21l.31.17a1 1 0 0 1 .18.12.71.71 0 0 1 .12.14.55.55 0 0 1 .07.15.53.53 0 0 1 0 .15.35.35 0 0 1 0 .11.18.18 0 0 1 0 .07h-.17v.06zm-.49-.9h.16a.2.2 0 0 0 0-.08.3.3 0 0 0-.05-.17.43.43 0 0 0-.16-.14l-.12-.07v.4zM156 322.23l.07.14a.21.21 0 0 1-.15.05.49.49 0 0 1-.22-.07.83.83 0 0 1-.2-.16 1 1 0 0 1-.16-.21 1.07 1.07 0 0 1-.1-.25 1.06 1.06 0 0 1 0-.27.62.62 0 0 1 0-.23.29.29 0 0 1 .1-.14.25.25 0 0 1 .16 0 .49.49 0 0 1 .21.07.81.81 0 0 1 .2.15 1 1 0 0 1 .15.19l-.06.07H155.88a.29.29 0 0 0-.13 0 .14.14 0 0 0-.1 0 .2.2 0 0 0-.06.1.52.52 0 0 0 0 .17.77.77 0 0 0 .09.36.64.64 0 0 0 .1.14.5.5 0 0 0 .12.1h.18zM157.29 322.61a.61.61 0 0 1 0 .23.29.29 0 0 1-.11.14.26.26 0 0 1-.16 0 .52.52 0 0 1-.21-.07.88.88 0 0 1-.21-.16 1.09 1.09 0 0 1-.16-.22 1.12 1.12 0 0 1-.11-.25 1 1 0 0 1 0-.27.6.6 0 0 1 0-.23.29.29 0 0 1 .11-.14.26.26 0 0 1 .16 0 .52.52 0 0 1 .21.07l.15.1.13.13.1.15a1.11 1.11 0 0 1 .08.17 1 1 0 0 1 0 .18 1 1 0 0 1 .02.17zm-.19-.11a.78.78 0 0 0 0-.19.72.72 0 0 0-.06-.17.63.63 0 0 0-.1-.14.57.57 0 0 0-.13-.1.33.33 0 0 0-.13 0 .15.15 0 0 0-.1 0 .2.2 0 0 0-.06.1.53.53 0 0 0 0 .17.8.8 0 0 0 0 .19.73.73 0 0 0 .06.17.63.63 0 0 0 .1.14.56.56 0 0 0 .13.1.33.33 0 0 0 .13 0 .15.15 0 0 0 .1 0 .2.2 0 0 0 .06-.1.51.51 0 0 0 0-.17zM158.41 322.62v1.21l-.1-.05-.53-1.1v.84l-.17-.09v-1.21l.1.05.54 1.1v-.06-.78zM159.27 323.31v-.05l-.06-.06-.08-.05H159.01a.14.14 0 0 0 0 .06.18.18 0 0 0 0 .08l.05.08.08.08.09.08.09.09.08.1a.55.55 0 0 1 .05.12.46.46 0 0 1 0 .14.37.37 0 0 1 0 .14.17.17 0 0 1-.07.09.18.18 0 0 1-.11 0 .39.39 0 0 1-.15-.05l-.1-.06-.09-.08-.08-.1-.07-.1.06-.08v.06l.07.07.09.07a.15.15 0 0 0 .13 0v-.11a.2.2 0 0 0 0-.09l-.05-.08-.08-.08-.09-.08-.09-.09-.08-.1a.55.55 0 0 1-.05-.12.52.52 0 0 1 0-.15.28.28 0 0 1 0-.12.16.16 0 0 1 .06-.08.17.17 0 0 1 .1 0 .37.37 0 0 1 .14 0 .75.75 0 0 1 .17.13.82.82 0 0 1 .13.17zM160.56 324.4a.61.61 0 0 1 0 .23.29.29 0 0 1-.11.14.26.26 0 0 1-.16 0 .52.52 0 0 1-.21-.07.89.89 0 0 1-.21-.16 1.09 1.09 0 0 1-.16-.22 1.12 1.12 0 0 1-.11-.25 1 1 0 0 1 0-.27.6.6 0 0 1 0-.23.29.29 0 0 1 .11-.14.26.26 0 0 1 .16 0 .52.52 0 0 1 .21.07l.15.1.13.13.1.15a1.11 1.11 0 0 1 .08.17 1 1 0 0 1 0 .18 1 1 0 0 1 .02.17zm-.19-.11a.78.78 0 0 0 0-.19.72.72 0 0 0-.06-.17.63.63 0 0 0-.1-.14.57.57 0 0 0-.13-.1.33.33 0 0 0-.13 0 .15.15 0 0 0-.1 0 .2.2 0 0 0-.06.1.52.52 0 0 0 0 .17.8.8 0 0 0 0 .19.73.73 0 0 0 .06.17.63.63 0 0 0 .1.14.56.56 0 0 0 .13.1.33.33 0 0 0 .13 0 .15.15 0 0 0 .1 0 .2.2 0 0 0 .06-.1.51.51 0 0 0-.01-.16zM161.41 325.29v.19l-.6-.33v-1.21l.19.1v1zM161.82 324.67v.33l.36.2v.17l-.36-.2v.34l.45.25v.24l-.65-.35v-1.21l.65.35v.18zM120.57 303.17l-.19-.1v-1.21l.19.1zM121.75 302.6v1.21l-.1-.05-.53-1.1v.84l-.17-.09v-1.21l.1.05.53 1.1v-.06-.78zM122.61 303.28v-.05l-.06-.06-.08-.05H122.35a.14.14 0 0 0 0 .06.18.18 0 0 0 0 .08l.05.08.08.08.09.08.09.09.08.1a.54.54 0 0 1 .05.12.46.46 0 0 1 0 .14.37.37 0 0 1 0 .14.17.17 0 0 1-.07.09.18.18 0 0 1-.11 0 .39.39 0 0 1-.15-.05l-.1-.06-.09-.08-.08-.09-.07-.1.06-.08v.06l.07.07.09.07a.14.14 0 0 0 .13 0v-.11a.2.2 0 0 0 0-.09l-.05-.08-.08-.08-.09-.08-.09-.09-.08-.1a.54.54 0 0 1-.05-.12.52.52 0 0 1 0-.15.29.29 0 0 1 0-.12.16.16 0 0 1 .07-.08.17.17 0 0 1 .1 0 .37.37 0 0 1 .14 0 .74.74 0 0 1 .17.12.81.81 0 0 1 .13.16zM123.64 303.81l-.31-.17v1l-.19-.1v-1l-.31-.17v-.18l.81.44zM124.65 305.39l-.17-.09a.15.15 0 0 1-.07-.08l-.21-.5h-.08v.47l-.19-.1v-1.21l.31.17a1 1 0 0 1 .18.12.71.71 0 0 1 .12.14.55.55 0 0 1 .07.15.53.53 0 0 1 0 .15.35.35 0 0 1 0 .11.19.19 0 0 1 0 .07h-.17v.06zm-.49-.9h.16a.2.2 0 0 0 0-.08.3.3 0 0 0-.05-.17.43.43 0 0 0-.16-.13L124 304v.4zM125.25 305.53h.17a.14.14 0 0 0 0-.07.37.37 0 0 0 0-.12v-.72l.19.1v.72a.51.51 0 0 1 0 .18.23.23 0 0 1-.08.11.21.21 0 0 1-.13 0 .45.45 0 0 1-.18-.06.75.75 0 0 1-.18-.13.84.84 0 0 1-.13-.18.87.87 0 0 1-.08-.2.81.81 0 0 1 0-.22v-.72l.19.1v.72a.55.55 0 0 0 0 .13.5.5 0 0 0 0 .12l.07.1zM126.68 306.2l.07.14a.22.22 0 0 1-.15.06.48.48 0 0 1-.22-.07.83.83 0 0 1-.2-.16 1 1 0 0 1-.16-.21 1.07 1.07 0 0 1-.1-.25 1.06 1.06 0 0 1 0-.27.62.62 0 0 1 0-.23.29.29 0 0 1 .1-.14.25.25 0 0 1 .16 0 .49.49 0 0 1 .21.07.8.8 0 0 1 .2.15 1 1 0 0 1 .15.19l-.06.07H126.56a.29.29 0 0 0-.13 0 .14.14 0 0 0-.1 0 .21.21 0 0 0-.06.1.52.52 0 0 0 0 .17.77.77 0 0 0 .09.36.64.64 0 0 0 .1.14.49.49 0 0 0 .12.09h.18zM127.72 306l-.31-.17v1l-.19-.1v-1l-.31-.17v-.18l.81.44zM128.13 307.27l-.19-.1V306l.19.1zM129.42 307.37a.62.62 0 0 1 0 .23.29.29 0 0 1-.11.14.26.26 0 0 1-.16 0 .52.52 0 0 1-.21-.07.88.88 0 0 1-.21-.16 1.08 1.08 0 0 1-.16-.22 1.11 1.11 0 0 1-.11-.25 1 1 0 0 1 0-.27.6.6 0 0 1 0-.23.29.29 0 0 1 .11-.14.26.26 0 0 1 .16 0 .51.51 0 0 1 .21.07l.15.1.13.13.1.15a1.1 1.1 0 0 1 .08.17 1 1 0 0 1 0 .18 1 1 0 0 1 .02.17zm-.19-.11a.78.78 0 0 0 0-.19.71.71 0 0 0-.06-.17.63.63 0 0 0-.1-.14.56.56 0 0 0-.13-.1.33.33 0 0 0-.13 0 .15.15 0 0 0-.1 0 .21.21 0 0 0-.07.1.53.53 0 0 0 0 .17.79.79 0 0 0 0 .19.72.72 0 0 0 .06.17.63.63 0 0 0 .1.14.56.56 0 0 0 .13.1.32.32 0 0 0 .13 0 .15.15 0 0 0 .1 0 .2.2 0 0 0 .06-.1.52.52 0 0 0 0-.17zM130.53 307.37v1.21l-.1-.05-.53-1.1v.84l-.17-.09v-1.28l.1.05.53 1.1v-.06-.78zM131.39 308.06v-.05l-.06-.06-.08-.05H131a.14.14 0 0 0 0 .06.18.18 0 0 0 0 .08l.05.08.08.08.09.08.09.09.08.1a.55.55 0 0 1 .05.12.46.46 0 0 1 0 .14.37.37 0 0 1 0 .14.17.17 0 0 1-.07.09.18.18 0 0 1-.11 0 .39.39 0 0 1-.15-.05l-.1-.06-.09-.08-.08-.09-.07-.1.06-.08v.06l.07.07.09.07a.14.14 0 0 0 .13 0v-.11a.2.2 0 0 0 0-.09l-.05-.08-.08-.08-.09-.08-.09-.09-.08-.1a.54.54 0 0 1-.05-.12.52.52 0 0 1 0-.15.29.29 0 0 1 0-.12.16.16 0 0 1 .06-.08.17.17 0 0 1 .1 0 .37.37 0 0 1 .14 0 .74.74 0 0 1 .17.12.82.82 0 0 1 .13.16zM118.14 301.62a.18.18 0 0 1-.07-.08l-.18-.35v-.14c0-.01.1 0 .13.08l.1.2.31-.24h.13a.14.14 0 0 1 0 .16l-.38.32a.06.06 0 0 1-.07 0z"/><path class="cls-9" d="M118.24 302.23a1.66 1.66 0 0 1-.77-1.34c0-.51.35-.73.78-.5a1.66 1.66 0 0 1 .77 1.34c-.02.51-.35.73-.78.5zm0-1.61c-.32-.17-.58 0-.58.37a1.25 1.25 0 0 0 .58 1c.32.17.58 0 .58-.37a1.25 1.25 0 0 0-.58-1z"/><path d="M235.31 317.45v-4.62a2.77 2.77 0 0 0-1.26-2.19l-119.13-66.05c-.69-.38-1.26 0-1.26.8V250s121.65 67.27 121.65 67.45z" fill="url(#Dégradé_sans_nom_30-29)"/><path class="cls-9" d="M154.52 269.24v-.05l-.06-.06-.08-.05H154.26a.14.14 0 0 0 0 .06.18.18 0 0 0 0 .08l.05.08.08.08.09.08.09.09.08.1a.55.55 0 0 1 .05.12.47.47 0 0 1 0 .14.37.37 0 0 1 0 .14.17.17 0 0 1-.07.09.18.18 0 0 1-.11 0 .39.39 0 0 1-.15-.05l-.1-.06-.09-.08-.08-.1-.07-.1.06-.08v.06l.07.07.09.07a.15.15 0 0 0 .13 0v-.11a.2.2 0 0 0 0-.09l-.05-.08-.08-.08-.09-.08-.09-.09-.08-.1a.55.55 0 0 1-.05-.12.52.52 0 0 1 0-.15.28.28 0 0 1 0-.12.16.16 0 0 1 .06-.08.17.17 0 0 1 .1 0 .37.37 0 0 1 .14 0 .75.75 0 0 1 .17.13.82.82 0 0 1 .13.17zM155.54 270.5l.07.14a.21.21 0 0 1-.15.05.49.49 0 0 1-.22-.07.83.83 0 0 1-.2-.16 1 1 0 0 1-.16-.21 1.08 1.08 0 0 1-.1-.25 1.06 1.06 0 0 1 0-.27.62.62 0 0 1 0-.23.29.29 0 0 1 .1-.14.25.25 0 0 1 .16 0 .49.49 0 0 1 .21.07.81.81 0 0 1 .2.15 1.05 1.05 0 0 1 .15.19l-.06.07H155.42a.29.29 0 0 0-.13 0 .14.14 0 0 0-.1 0 .2.2 0 0 0-.06.1.52.52 0 0 0 0 .17.77.77 0 0 0 .09.36.65.65 0 0 0 .1.14.5.5 0 0 0 .12.1h.18zM156.65 271.4l-.17-.09a.15.15 0 0 1-.07-.08l-.21-.51h-.08v.47l-.19-.1v-1.21l.31.17a1 1 0 0 1 .18.12.72.72 0 0 1 .12.14.55.55 0 0 1 .07.15.53.53 0 0 1 0 .15.35.35 0 0 1 0 .11.18.18 0 0 1 0 .07h-.17v.06zm-.49-.9h.16a.2.2 0 0 0 0-.08.3.3 0 0 0-.05-.17.43.43 0 0 0-.16-.14L156 270v.4zM157 271.62l-.19-.11v-1.21l.19.11zM157.69 270.76a.89.89 0 0 1 .18.13.74.74 0 0 1 .12.15.62.62 0 0 1 .1.33.38.38 0 0 1 0 .15.16.16 0 0 1-.07.08.2.2 0 0 1-.12 0 .55.55 0 0 1-.17-.07l-.14-.08v.43l-.19-.11v-1.21zm0 .61h.15a.24.24 0 0 0 0-.09.35.35 0 0 0 0-.09.34.34 0 0 0 0-.09l-.06-.08-.09-.07-.14-.08v.43zM159 271.69l-.31-.17v1l-.19-.11v-1l-.31-.17v-.18l.81.45zM159.1 272.64h.08v.05a.19.19 0 0 1 0 .05h-.08v-.05a.18.18 0 0 1 0-.05zM160.37 273.46l-.17-.09a.15.15 0 0 1-.07-.08l-.21-.51h-.08v.47l-.19-.11v-1.21l.31.17a1 1 0 0 1 .18.12.72.72 0 0 1 .12.14.55.55 0 0 1 .07.15.53.53 0 0 1 0 .15.35.35 0 0 1 0 .11.18.18 0 0 1 0 .07h-.17v.06zm-.49-.9h.12a.2.2 0 0 0 0-.08.3.3 0 0 0-.05-.17.43.43 0 0 0-.16-.14l-.12-.07v.4zM118.33 250.69l-.77-.42a.7.7 0 0 1-.32-.56v-1c0-.21.15-.3.33-.21l.77.42a.7.7 0 0 1 .32.56v1c-.01.22-.15.31-.33.21zm-.76-2c-.08 0-.15 0-.15.09v1a.32.32 0 0 0 .15.25l.77.42c.08 0 .15 0 .15-.09v-1a.32.32 0 0 0-.15-.25z"/><path class="cls-9" d="M118.18 249.56l-.47-.26a.19.19 0 0 1-.09-.15c0-.06 0-.08.09-.06l.47.26a.19.19 0 0 1 .09.15c0 .07-.04.09-.09.06zM118.18 250.05l-.47-.26a.19.19 0 0 1-.09-.15c0-.06 0-.08.09-.06l.47.26a.19.19 0 0 1 .09.15c0 .06-.04.09-.09.06z"/><rect class="cls-62" x="288.33" y="409.68" width="6.56" height="18.86" rx="2.28" ry="2.28"/><path fill="#2fcc6e" d="M271.55 410.02l20.06 11.14V377.7l-20.06 32.32z"/><path fill="url(#Dégradé_sans_nom_57)" d="M311.67 410.02l-20.06 11.14V377.7l20.06 32.32z"/><path fill="#36d57d" d="M276.85 390.82l14.76 8.2v-31.98l-14.76 23.78z"/><path fill="url(#Dégradé_sans_nom_57-2)" d="M306.37 390.82l-14.76 8.2v-31.98l14.76 23.78z"/><rect x="329.06" y="424.64" width="4.35" height="12.49" rx="1.14" ry="1.14" fill="url(#Dégradé_sans_nom_10-9)"/><path fill="url(#Dégradé_sans_nom_10-10)" d="M317.95 423.78l13.28 7.38v-28.79l-13.28 21.41z"/><path fill="url(#Dégradé_sans_nom_100-7)" d="M344.52 423.78l-13.29 7.38v-28.79l13.29 21.41z"/><path fill="url(#Dégradé_sans_nom_10-11)" d="M321.46 411.06l9.77 5.43v-21.18l-9.77 15.75z"/><path fill="url(#Dégradé_sans_nom_100-8)" d="M341.01 411.06l-9.78 5.43v-21.18l9.78 15.75z"/><path fill="url(#Dégradé_sans_nom_103-3)" d="M74.54 415.87l28.03-13.95-5.5-3.06-20.12 9.57 16.82-9.98-4.4-2.85-23.1 13.04 8.54-.44-.27 7.67z"/><rect class="cls-73" x="67.24" y="332.19" width="8.46" height="13.35" rx="4.23" ry="4.23"/><circle class="cls-73" cx="63.83" cy="375.82" r="2.28"/><path class="cls-74" d="M76.61 375.32a7 7 0 0 1-14 .05"/><path class="cls-75" d="M79.92 409.12a.33.33 0 0 0-.26-.12 61.75 61.75 0 0 0-6.56.35.33.33 0 0 0-.22.14l-1.26 1.91-.64.48a.32.32 0 0 0-.13.22c0 .09-.29 2.23.43 3.3a3 3 0 0 0 2.1.95 4 4 0 0 0 2.9-1.6c.25-.23 3-2.77 3.65-5.37a.32.32 0 0 0-.01-.26zM73.07 404.59a.33.33 0 0 0-.26-.12 61.75 61.75 0 0 0-6.56.35.33.33 0 0 0-.25.18l-1.26 1.91-.64.48a.32.32 0 0 0-.13.22c0 .09-.29 2.23.43 3.3a3 3 0 0 0 2.1.95 4 4 0 0 0 2.9-1.6c.25-.23 3-2.77 3.65-5.37a.32.32 0 0 0 .02-.3z"/><path class="cls-74" d="M75.87 376.78l.13 34.28a2.54 2.54 0 0 1-2.52 2.54 2.54 2.54 0 0 1-2.54-2.52l-.11-29.74M68.91 377.56l.09 29.73a2.54 2.54 0 0 1-2.52 2.54 2.54 2.54 0 0 1-2.48-2.52l-.11-29.74"/><circle class="cls-73" cx="77.17" cy="377.12" r="2.28"/><path class="cls-73" d="M72.13 347.49v-5.21h-5.21v5.21s1.95 1.63 5.21 0z"/><path d="M73.1 336.1v4.23h-1.3V339s-1.63-.65-2 1.3a1.9 1.9 0 0 0 .65 2v1.45s-.69 1.47-3.62 1.47c-3.42 0-3.87-2-3.87-2v-5.82s-.16-6.35 4.4-7.33a33.19 33.19 0 0 1 6.51 0s3.72 0 1.76 3.39c0 0 0 .49-2.44.49z" fill="#512a2a"/><path d="M62.2 376.09s6.46 2.73 12.8.23c.75 2 4.25 1.73 4.25-.8 0-4.83.08-9.68 0-14.51-.09-4.22-.8-8.15-3.58-11.45a2.39 2.39 0 0 0-.33-.33 9.89 9.89 0 0 0-6.47-2.23s-4.92.15-6.39 4.06c0 .01-4.48 16.8-.28 25.03z" fill="url(#Dégradé_sans_nom_57-3)"/><path fill="url(#Dégradé_sans_nom_103-4)" d="M100.08 425.15l29.27-13.05-6.2-3.45-22.7 10.8 18.98-11.26-4.97-3.22-21.4 15.5 2.92 1.17 4.1 3.51z"/><path class="cls-62" d="M89.36 395.14l1.12 23.4h3.15l-.67-23.4h-3.6z"/><path class="cls-62" d="M92.89 415.84a2.84 2.84 0 0 0 .5 1.36c.57 1.12 2 1.52 2.49 2.69a.34.34 0 0 1 0 .17c0 .12-.15.18-.26.22a2.68 2.68 0 0 1-1.7.19 2 2 0 0 1-.57-.33 4 4 0 0 1-1.28-4"/><path class="cls-75" d="M90.36 422.14l-.8-5.81s0-.58 1.6-.58c0 0 .8 3.48 3.2 4.06a16.74 16.74 0 0 0 3.2-.58s2.4.58-1.6 2.32c0 0-3.2 1.16-4.8-1.74v2.32z"/><path class="cls-62" d="M93.86 355.55v-4.5h-4.5l-.9 4.73s2.02 1.22 5.4-.23zM93.86 399.64l.22 21.6h3.15l.23-23.4-3.6 1.8z"/><path class="cls-74" d="M86.9 378.45a6.84 6.84 0 0 0 .8 5.43 9.27 9.27 0 0 1 .88 1.42 5.68 5.68 0 0 1 .27 2.26q-.08 5.47-.23 10.94a2.27 2.27 0 0 0 .09.86 1.87 1.87 0 0 0 1 .92 7.7 7.7 0 0 0 7 .41 3.92 3.92 0 0 0 2.21-1.76 5.36 5.36 0 0 0 .36-2.4c0-5.62.47-12.87 0-18.47"/><rect class="cls-62" x="93.86" y="343.86" width="4.5" height="9" rx="1.42" ry="1.42"/><path d="M101.59 366.86c-1.66-3.49-3.51-8.67-5.53-11.93a1.45 1.45 0 0 0-.4-.47c-.48 0-.7-.68-1.14-.7a65.18 65.18 0 0 1-6.63-.71 7.7 7.7 0 0 0-2.73 8.26c.64 2.11 2.14 3.8 2.94 5.84a9.59 9.59 0 0 1-.64 8.19c-.62 1.05-1.5 2.2-1.14 3.39a2.84 2.84 0 0 0 1.3 1.48c2.69 1.72 6 1.76 9.11 1.39a5.68 5.68 0 0 0 2.09-.56 2.67 2.67 0 0 0 1-.92 1.72 1.72 0 0 0 .24-.28 2.39 2.39 0 0 0 0-2.27c-.31-.73-.81-1.38-1.14-2.11a8.41 8.41 0 0 1-.61-2.14 20.38 20.38 0 0 1-.28-3 8.71 8.71 0 0 0 1 1.28 2.39 2.39 0 0 0 1.4.85c1.08.13 2-1.06 2.07-2.23a6.79 6.79 0 0 0-.91-3.36z" fill="url(#Dégradé_sans_nom_4-2)"/><path class="cls-75" d="M93.41 354.21c-.9 0-.9 4.5-.9 4.5a3.85 3.85 0 0 1-3.15 4c-3.43 0-3.39-2.84-3.39-2.84v-12.12s-.16-6.37 4.41-7.35a23.19 23.19 0 0 1 5.72 0s4.5.3 1.8 4.8a3.33 3.33 0 0 0-1.8 2.7v7.26s-1.34-1.4-2.69-.95z"/><path class="cls-62" d="M96.93 418.24a4.38 4.38 0 0 0 .36 1.89c.65 1.27 2.3 1.72 2.82 3.06a.38.38 0 0 1 0 .2c0 .14-.17.21-.3.25a3 3 0 0 1-1.93.21 2.24 2.24 0 0 1-.65-.38 4.49 4.49 0 0 1-1.45-4.55"/><path class="cls-75" d="M93.85 425.74l-.91-6.6s0-.66 1.82-.66c0 0 .91 4 3.63 4.62a19 19 0 0 0 3.63-.66s2.73.66-1.82 2.64c0 0-3.63 1.32-5.45-2v2.64z"/><path fill="url(#Dégradé_sans_nom_103-5)" d="M116.63 446.03l30.39-15.13-5.96-3.32-21.82 10.39 18.24-10.83-4.77-3.09-22.16 14.22 6.37-.55-.29 8.31z"/><circle class="cls-62" cx="108.19" cy="400.49" r="2.47"/><path class="cls-74" d="M122.58 402.06a7.6 7.6 0 0 1-15.18.06"/><path class="cls-82" d="M126.17 438.71a.35.35 0 0 0-.28-.13 67 67 0 0 0-7.11.38.35.35 0 0 0-.24.15l-1.37 2.07-.7.52a.35.35 0 0 0-.14.24c0 .1-.31 2.42.46 3.58a3.24 3.24 0 0 0 2.28 1 4.34 4.34 0 0 0 3.15-1.74c.27-.25 3.26-3 4-5.83a.35.35 0 0 0-.05-.24zM118.74 433.8a.35.35 0 0 0-.28-.13 67 67 0 0 0-7.11.38.35.35 0 0 0-.24.15l-1.37 2.07-.7.52a.35.35 0 0 0-.14.24c0 .1-.31 2.42.46 3.58a3.24 3.24 0 0 0 2.28 1 4.34 4.34 0 0 0 3.15-1.74c.27-.25 3.26-3 4-5.83a.35.35 0 0 0-.05-.24z"/><path class="cls-74" d="M121.78 403.65l.14 37.17a2.75 2.75 0 0 1-2.73 2.75 2.75 2.75 0 0 1-2.75-2.73l-.12-32.24M114.24 404.49l.12 32.24a2.75 2.75 0 0 1-2.73 2.75 2.75 2.75 0 0 1-2.75-2.73l-.12-32.24"/><path d="M108.16 396.64a12.53 12.53 0 0 1-2.16-6.74 23.33 23.33 0 0 1 .35-7.72 9.67 9.67 0 0 1 6.65-6.38c2.75-.77 1.58-5.07-1.18-4.29a14.56 14.56 0 0 0-9.59 8.94c-1 3-.89 6.36-.68 9.44a16.94 16.94 0 0 0 2.74 9c1.66 2.3 5.52.08 3.84-2.24z" fill="url(#Dégradé_sans_nom_107)"/><path fill="url(#Dégradé_sans_nom_30-30)" d="M134.83 410.33l-.02-7-16.33 9.28-.03 7.23.02-.01-.02 6.27 16.38-9.51-.01-6.25.01-.01z"/><path d="M118.48 426.07v-13.48l-3.42-1.8v11.85s-.19 2.61 3.42 3.43z" fill="url(#Dégradé_sans_nom_100-9)"/><path class="cls-9" d="M134.79 403.33l-16.33 9.28-3.46-1.82 14.57-8.31s1.98-1.08 5.22.85z"/><path d="M121.66 408.24s1.62-4.49 5.75-3.09" fill="url(#Dégradé_sans_nom_77-2)"/><circle class="cls-62" cx="123.43" cy="404.13" r="2.39"/><path d="M126 386c-.1-4.57-.87-8.84-3.88-12.41a2.6 2.6 0 0 0-.36-.35 10.72 10.72 0 0 0-7-2.41s-7.24 3.4-7.24 7.56v24s7 3 13.87.25c.81 2.16 4.61 1.88 4.61-.87 0-5.26.06-10.51 0-15.77z" fill="url(#Dégradé_sans_nom_107-2)"/><rect class="cls-62" x="112.74" y="356.17" width="9.18" height="14.47" rx="4.59" ry="4.59" transform="rotate(9.6 117.349 363.477)"/><path class="cls-62" d="M117.72 371.9v-5.65h-5.65v5.65s2.12 1.76 5.65 0z"/><path class="cls-75" d="M118.11 365.14l-.7-.12.24-1.39a1.52 1.52 0 0 0-2.32 1 2.07 2.07 0 0 0 .34 2.21s.64.47 1 .18c0 0-.53 3.13-4.65 2.08 0 0-4.7-1.87-3.52-8.83 0 0 1-6.82 6-7a36 36 0 0 1 7 1.18 3.35 3.35 0 0 0 2.35-.14s1.44 6.33-4.31 6.43l-.77 4.52z"/><path class="cls-9" d="M120 250.07v.39l.45.27v.2l-.45-.27v.4l.57.35v.21l-.81-.49v-1.42l.8.48v.21zM121.84 252.39l-.24-.14-.3-.73-.29.34-.22-.14.43-.48-.4-.94.23.14.29.7.26-.31.22.14-.41.44zM122.21 251.39v.4l.45.27v.21l-.45-.27v.41l.57.35v.24l-.81-.49V251l.8.48v.22zM124 253.7l-.22-.13a.22.22 0 0 1-.09-.11l-.28-.63v-.06h-.05l-.1-.06v.57l-.24-.14v-1.46l.39.23a1.35 1.35 0 0 1 .22.16 1 1 0 0 1 .15.18.76.76 0 0 1 .09.19.68.68 0 0 1 0 .19.4.4 0 0 1 0 .13.2.2 0 0 1-.05.09.16.16 0 0 1-.09 0h-.12v.13zm-.64-1.14l.12.05h.08a.09.09 0 0 0 0-.05.23.23 0 0 0 0-.09.39.39 0 0 0-.07-.21.61.61 0 0 0-.2-.18l-.15-.09v.48zM125 254l.1.17a.23.23 0 0 1-.18.05.67.67 0 0 1-.27-.11 1.22 1.22 0 0 1-.26-.21 1.46 1.46 0 0 1-.33-.59 1.34 1.34 0 0 1-.06-.31.72.72 0 0 1 0-.28.3.3 0 0 1 .12-.16.29.29 0 0 1 .19 0 .66.66 0 0 1 .25.1 1.15 1.15 0 0 1 .25.2 1.54 1.54 0 0 1 .19.25l-.07.08v-.05l-.05-.06-.07-.06-.09-.06a.39.39 0 0 0-.15-.06.16.16 0 0 0-.12 0 .22.22 0 0 0-.07.12.62.62 0 0 0 0 .2 1 1 0 0 0 0 .24 1 1 0 0 0 .09.21.92.92 0 0 0 .13.18.72.72 0 0 0 .15.13h.28zM125.56 254.64l-.24-.15-.08-1.48.24.14zM126.46 254l-.05-.07-.07-.08-.1-.07H126a.17.17 0 0 0 0 .07.24.24 0 0 0 0 .1l.07.1.1.1.11.11.11.12.1.13a.79.79 0 0 1 .07.15.62.62 0 0 1 0 .17.44.44 0 0 1 0 .17.18.18 0 0 1-.08.1.2.2 0 0 1-.13 0 .54.54 0 0 1-.19-.08l-.12-.09-.12-.11-.11-.12-.09-.13.06-.09h.05l.06.08.09.1.12.09c.07 0 .12.05.15 0s.05-.06 0-.13a.27.27 0 0 0 0-.11l-.07-.1-.1-.1-.11-.1-.11-.11-.1-.13a.78.78 0 0 1-.07-.16.7.7 0 0 1 0-.19.34.34 0 0 1 0-.14.16.16 0 0 1 .07-.09.19.19 0 0 1 .12 0 .48.48 0 0 1 .17.07 1.07 1.07 0 0 1 .21.17 1.22 1.22 0 0 1 .17.21zM127 254.27v.42l.45.27v.22l-.45-.27v.42l.57.35v.22l-.81-.49-.11-1.5.8.48v.22z"/></g></g></svg>